<svg xmlns="http://www.w3.org/2000/svg" width="24" height="25" viewBox="0 0 24 25"><g><g><path fill="#333" d="M23.999 12.5c0 6.627-5.372 11.999-12 11.999-6.626 0-11.998-5.372-11.998-12C0 5.874 5.373.5 12 .5c6.627 0 11.999 5.373 11.999 12zM9.856 16.335a1.578 1.578 0 1 0-3.156 0 1.578 1.578 0 0 0 3.156 0zm4.657 1.588c0-4.324-3.503-7.844-7.81-7.844v2.278a5.48 5.48 0 0 1 3.911 1.628 5.54 5.54 0 0 1 1.622 3.938zm4.024.002c0-6.551-5.308-11.883-11.831-11.883v2.279c5.268 0 9.553 4.309 9.553 9.604z"/></g></g></svg>