<svg xmlns="http://www.w3.org/2000/svg" width="24" height="25" viewBox="0 0 24 25"><g><g><path fill="#333" d="M23.998 12.5c0 6.627-5.37 11.998-11.998 11.998C5.374 24.498.001 19.127.001 12.5c0-6.626 5.373-12 12-12 6.626 0 11.998 5.374 11.998 12zm-3.345-.633l-.011-.017c-.31.108-.92.076-1.824-.1v-.097c0-.007 0-.007.006 0 .99-.108 1.572-.411 1.76-.916a2.89 2.89 0 0 1-2.044.023c-.123-.889-.561-1.696-1.32-2.429a3.104 3.104 0 0 0-2.294-.84l-.027-.058c.005-.005.01-.005.015-.005.787-.171 1.252-.348 1.39-.54.05-.156-.01-.241-.18-.262-.397.048-.76.128-1.086.251.411-.25.572-.428.48-.519-.406.012-.844.209-1.304.6.171-.279.236-.428.193-.455-.22.144-.412.3-.578.465-.347.37-.626.712-.84 1.02l-.01.029a8.905 8.905 0 0 0-1.166 2.578l-.085.063-.016.016a4.306 4.306 0 0 0-1.204-.996 14.458 14.458 0 0 0-1.979-.999 17.488 17.488 0 0 0-2.518-1.006c-.005.905.46 1.626 1.385 2.15v.017a3.122 3.122 0 0 0-.947.133c.059.84.685 1.417 1.872 1.739l-.005.015c-.466-.025-.85.129-1.15.45.39.727 1.08 1.074 2.08 1.047a1.423 1.423 0 0 0-.454.321.643.643 0 0 0-.182.642c.214.369.599.54 1.166.514l.032.037-.016.016c-.979.963-2.16 1.397-3.546 1.305l-.021.01c-.845-.005-1.749-.39-2.727-1.16.983 1.347 2.288 2.321 3.903 2.931 1.85.583 3.701.625 5.546.128h.032c1.791-.491 3.31-1.502 4.561-3.032.578-.802.941-1.567 1.086-2.3.936.032 1.61-.223 2.027-.769z"/></g></g></svg>